<?xml version="1.0" encoding="UTF-8"?>
<svg xmlns="http://www.w3.org/2000/svg" xmlns:xlink="http://www.w3.org/1999/xlink" viewBox="0 0 64 64" width="64px" height="64px">
<g id="surface25284690">
<path style=" stroke:none;fill-rule:nonzero;fill:rgb(100%,100%,100%);fill-opacity:1;" d="M 13.167969 18.019531 C 10.449219 18.019531 7.6875 19.082031 7.226562 19.660156 C 7.105469 19.898438 6.828125 21.839844 7.488281 21.839844 C 7.707031 21.839844 7.808594 21.878906 8.449219 21.578125 C 10.847656 20.636719 12.371094 20.660156 12.589844 20.660156 C 15.289062 20.398438 16.847656 22.242188 16.609375 24.621094 L 16.609375 26.019531 C 14.328125 25.480469 13.027344 25.460938 12.386719 25.460938 C 9.066406 25.261719 6 27.011719 6 30.859375 C 6 35.078125 9.765625 35.980469 11.226562 35.921875 C 13.40625 35.941406 15.488281 34.960938 16.867188 33.261719 C 17.96875 35.722656 18.667969 35.558594 18.6875 35.558594 C 18.886719 35.558594 19.046875 35.480469 19.207031 35.378906 L 20.347656 34.578125 C 20.546875 34.457031 20.707031 34.257812 20.726562 34.019531 C 20.707031 33.441406 19.667969 32.539062 19.746094 30.519531 L 19.746094 24.28125 C 19.867188 22.5625 19.308594 20.878906 18.148438 19.578125 C 16.769531 18.417969 14.949219 17.859375 13.167969 18.019531 Z M 51.914062 18.019531 C 47.914062 18.019531 45.617188 20.519531 45.675781 23.058594 C 45.675781 26.539062 49.195312 27.640625 49.59375 27.761719 C 52.972656 28.820312 53.433594 28.859375 54.375 29.660156 C 55.175781 30.480469 55.074219 32.082031 53.894531 32.78125 C 53.554688 32.980469 52.09375 33.859375 48.792969 33.179688 C 47.691406 32.960938 47.113281 32.699219 46.214844 32.320312 C 45.976562 32.242188 45.414062 32.101562 45.414062 32.839844 L 45.414062 33.820312 C 45.414062 34.28125 45.691406 34.699219 46.113281 34.898438 C 48.214844 35.957031 50.734375 36 51.273438 36 C 51.351562 36 55.953125 36.003906 57.492188 32.898438 C 57.808594 32.257812 58.632812 29.921875 57.09375 27.921875 C 55.8125 26.421875 54.714844 26.261719 51.433594 25.261719 C 51.152344 25.183594 48.734375 24.558594 48.753906 22.859375 C 48.632812 20.679688 51.59375 20.5625 52.214844 20.601562 C 54.714844 20.5625 55.953125 21.5 56.632812 21.558594 C 56.933594 21.558594 57.074219 21.378906 57.074219 20.980469 L 57.074219 20.058594 C 57.09375 19.839844 57.015625 19.621094 56.894531 19.441406 C 56.09375 18.402344 53.035156 18.019531 51.914062 18.019531 Z M 21.554688 18.519531 C 21.335938 18.558594 21.175781 18.78125 21.214844 19 C 21.253906 19.261719 21.292969 19.519531 21.394531 19.78125 L 25.875 34.558594 C 25.976562 35.039062 26.292969 35.558594 26.992188 35.480469 L 28.632812 35.480469 C 29.632812 35.582031 29.773438 34.621094 29.792969 34.519531 L 32.734375 22.199219 L 35.714844 34.539062 C 35.734375 34.640625 35.875 35.601562 36.855469 35.5 L 38.515625 35.5 C 39.234375 35.578125 39.574219 35.058594 39.675781 34.578125 C 44.714844 18.359375 44.375 19.460938 44.414062 19.300781 C 44.492188 18.460938 44.011719 18.519531 43.933594 18.539062 L 42.152344 18.539062 C 41.253906 18.4375 41.074219 19.261719 41.035156 19.460938 L 37.714844 32.28125 L 34.714844 19.460938 C 34.574219 18.480469 33.773438 18.519531 33.574219 18.539062 L 32.035156 18.539062 C 31.15625 18.460938 30.933594 19.160156 30.875 19.460938 L 27.894531 32.101562 L 24.695312 19.460938 C 24.617188 19.0625 24.355469 18.441406 23.574219 18.519531 Z M 13.046875 27.78125 C 14.488281 27.800781 15.730469 28.019531 16.589844 28.21875 C 16.589844 29.21875 16.625 29.78125 16.40625 30.679688 C 16.125 31.640625 14.890625 33.382812 11.96875 33.421875 C 10.289062 33.5 9.1875 32.179688 9.289062 30.679688 C 9.1875 28.28125 11.667969 27.679688 13.046875 27.78125 Z M 58.082031 40.003906 C 56.214844 40.03125 54.011719 40.449219 52.339844 41.621094 C 51.824219 41.980469 51.914062 42.476562 52.488281 42.410156 C 54.367188 42.183594 58.554688 41.675781 59.300781 42.632812 C 60.050781 43.589844 58.472656 47.53125 57.773438 49.296875 C 57.558594 49.824219 58.015625 50.039062 58.496094 49.640625 C 61.625 47.019531 62.4375 41.527344 61.796875 40.738281 C 61.476562 40.34375 59.949219 39.976562 58.082031 40.003906 Z M 2.433594 42.003906 C 1.996094 42.0625 1.808594 42.617188 2.265625 43.054688 C 10.101562 50.402344 20.453125 54 31.945312 54 C 40.144531 54 49.660156 51.324219 56.230469 46.285156 C 57.316406 45.445312 56.390625 44.191406 55.277344 44.6875 C 47.910156 47.9375 39.910156 49.503906 32.628906 49.503906 C 21.835938 49.503906 11.390625 47.25 2.9375 42.132812 C 2.753906 42.019531 2.578125 41.984375 2.433594 42.003906 Z M 2.433594 42.003906 "/>
</g>
</svg>
